<?xml version="1.0" standalone="no"?>
<!DOCTYPE svg PUBLIC "-//W3C//DTD SVG 20010904//EN"
 "http://www.w3.org/TR/2001/REC-SVG-20010904/DTD/svg10.dtd">
<svg version="1.0" xmlns="http://www.w3.org/2000/svg"
 width="260.000000pt" height="260.000000pt" viewBox="0 0 260.000000 260.000000"
 preserveAspectRatio="xMidYMid meet">
<metadata>
Created by potrace 1.11, written by Peter Selinger 2001-2013
</metadata>
<g transform="translate(0.000000,260.000000) scale(0.100000,-0.100000)"
fill="#000000" stroke="none">
<path d="M0 1300 l0 -1300 1300 0 1300 0 0 1300 0 1300 -1300 0 -1300 0 0
-1300z m1088 306 c343 -147 625 -266 627 -264 2 2 -20 99 -48 216 -29 116 -52
212 -50 212 1 0 120 -140 264 -310 171 -201 268 -309 277 -305 8 3 30 7 50 10
34 5 41 1 90 -45 28 -28 52 -52 52 -53 0 -2 -59 -1 -130 1 -99 3 -135 1 -147
-10 -9 -7 -63 -70 -120 -140 -57 -70 -109 -125 -116 -123 -18 7 -635 115 -661
116 -11 1 -198 -42 -415 -95 -216 -53 -395 -96 -396 -94 -2 2 111 55 252 118
190 85 251 116 237 122 -11 4 -138 28 -284 53 -257 45 -336 63 -281 64 50 2
877 72 888 76 14 5 22 125 9 143 -5 7 -173 139 -373 293 -199 154 -363 282
-363 285 0 3 3 3 8 1 4 -3 288 -125 630 -271z"/>
</g>
</svg>
