<svg xmlns="http://www.w3.org/2000/svg" viewBox="0 0 13.77 11.51"><defs><style>.cls-1,.cls-2,.cls-3,.cls-4{fill:#fff;}.cls-2{opacity:0.1;}.cls-3{opacity:0.6;}.cls-4{opacity:0.35;}</style></defs><title>dala-white-logo</title><g id="Layer_2" data-name="Layer 2"><g id="Layer_1-2" data-name="Layer 1"><path class="cls-1" d="M4.08,7.17H3.69V6.62H3v.55H2.41V7.6h.53v.25h0v.64a1.33,1.33,0,0,0-.5-.5A1.38,1.38,0,0,0,1.7,7.8a1.59,1.59,0,0,0-1.21.51A1.82,1.82,0,0,0,0,9.64,1.88,1.88,0,0,0,.49,11a1.6,1.6,0,0,0,1.21.53,1.39,1.39,0,0,0,.74-.2,1.49,1.49,0,0,0,.5-.53v.67h.75V7.6h.39ZM2.62,10.53a1,1,0,0,1-.77.33,1,1,0,0,1-.76-.34,1.21,1.21,0,0,1-.33-.89,1.16,1.16,0,0,1,.33-.87,1.06,1.06,0,0,1,1.53,0,1.2,1.2,0,0,1,.32.88A1.22,1.22,0,0,1,2.62,10.53Z"/><path class="cls-1" d="M4.75,11a1.88,1.88,0,0,1-.49-1.34,1.86,1.86,0,0,1,.48-1.33A1.62,1.62,0,0,1,6,7.8,1.39,1.39,0,0,1,6.7,8a1.33,1.33,0,0,1,.5.5V7.85H8v3.6H7.2v-.67a1.49,1.49,0,0,1-.5.53,1.42,1.42,0,0,1-.75.2A1.58,1.58,0,0,1,4.75,11Zm2.13-.45a1.22,1.22,0,0,0,.32-.88,1.2,1.2,0,0,0-.32-.88,1,1,0,0,0-.77-.33,1.07,1.07,0,0,0-.77.32A1.19,1.19,0,0,0,5,9.63a1.24,1.24,0,0,0,.32.89,1,1,0,0,0,.77.34A1,1,0,0,0,6.88,10.53Z"/><path class="cls-1" d="M8.76,11.45V6.62h.75v4.83Z"/><path class="cls-1" d="M10.56,11a1.91,1.91,0,0,1-.48-1.34,1.86,1.86,0,0,1,.48-1.33,1.62,1.62,0,0,1,1.21-.51,1.44,1.44,0,0,1,.75.19,1.41,1.41,0,0,1,.5.5V7.85h.75v3.6H13v-.67a1.52,1.52,0,0,1-.51.53,1.39,1.39,0,0,1-.74.2A1.6,1.6,0,0,1,10.56,11Zm2.13-.45A1.18,1.18,0,0,0,13,9.65a1.17,1.17,0,0,0-.33-.88,1,1,0,0,0-.76-.33,1.07,1.07,0,0,0-.77.32,1.19,1.19,0,0,0-.32.87,1.24,1.24,0,0,0,.32.89,1,1,0,0,0,1.53,0Z"/><polygon class="cls-2" points="6.88 0.52 9.14 1.65 9.14 4.47 6.88 3.34 6.88 0.52"/><polygon class="cls-3" points="4.63 4.47 6.88 3.34 6.88 0.52 4.63 1.65 4.63 4.47"/><polygon class="cls-4" points="6.88 5.6 4.63 4.47 6.88 3.34 9.14 4.47 6.88 5.6"/><path class="cls-1" d="M9.56,1.29,7,0a.37.37,0,0,0-.29,0L4.21,1.29a.3.3,0,0,0-.15.24V4.59a.32.32,0,0,0,.15.24L6.74,6.09a.37.37,0,0,0,.29,0L9.56,4.83a.3.3,0,0,0,.14-.24V1.53A.29.29,0,0,0,9.56,1.29ZM9.14,4.47,6.88,5.6,4.63,4.47V1.65L6.88.52,9.14,1.65Z"/><path class="cls-1" d="M8.05,2H7.83V1.66H7.4V2H7.09v.24H7.4v.15h0v.36a.81.81,0,0,0-.29-.29.82.82,0,0,0-.42-.11.89.89,0,0,0-.69.3,1,1,0,0,0-.28.76A1.07,1.07,0,0,0,6,4.16a.89.89,0,0,0,.69.3.74.74,0,0,0,.42-.12A.83.83,0,0,0,7.4,4v.38h.43V2.22h.22ZM7.21,3.9a.58.58,0,0,1-.87,0,.69.69,0,0,1-.19-.5.69.69,0,0,1,.19-.5.58.58,0,0,1,.44-.19.59.59,0,0,1,.43.19.65.65,0,0,1,.19.5A.69.69,0,0,1,7.21,3.9Z"/></g></g></svg>