<svg xmlns="http://www.w3.org/2000/svg" xmlns:xlink="http://www.w3.org/1999/xlink" viewBox="0 0 1102.4 1145"><defs><style>.cls-1{fill:url(#linear-gradient);}.cls-2{fill:url(#linear-gradient-2);}.cls-3{fill:url(#linear-gradient-3);}.cls-4{fill:url(#linear-gradient-4);}.cls-5{fill:url(#linear-gradient-5);}</style><linearGradient id="linear-gradient" y1="296.5" x2="880.47" y2="296.5" gradientUnits="userSpaceOnUse"><stop offset="0.28" stop-color="#98d9f5" stop-opacity="0.3"/><stop offset="1" stop-color="#98d9f5" stop-opacity="0.7"/></linearGradient><linearGradient id="linear-gradient-2" x1="0" y1="428.62" x2="880.47" y2="428.62" xlink:href="#linear-gradient"/><linearGradient id="linear-gradient-3" x1="0" y1="572.5" x2="880.47" y2="572.5" xlink:href="#linear-gradient"/><linearGradient id="linear-gradient-4" x1="0" y1="716.38" x2="880.47" y2="716.38" xlink:href="#linear-gradient"/><linearGradient id="linear-gradient-5" x1="0" y1="848.5" x2="880.47" y2="848.5" xlink:href="#linear-gradient"/></defs><title>send-money-graphic</title><g id="Layer_2" data-name="Layer 2"><g id="Layer_1-2" data-name="Layer 1"><image width="184" height="184" transform="translate(918.4 720.75)" xlink:href="../../../../send-money-2.png"/><image width="184" height="184" transform="translate(918.4 240.25)" xlink:href="../../../../send-money-1.png"/><image width="184" height="184" transform="translate(918.4 961)" xlink:href="../../../../send-money-3.png"/><image width="184" height="184" transform="translate(918.4)" xlink:href="../../../../send-money-4.png"/><path class="cls-1" d="M620.63,525.36c14.42-7.21,31.61-22.56,31.61-54.73V146.35c0-19.07,7.5-32.58,22.3-40.18a60.3,60.3,0,0,1,24-6.17H848.47v24l32-32-32-32V84H698.58a75.88,75.88,0,0,0-30.75,7.64c-14.41,7.2-31.59,22.55-31.59,54.71V470.63c0,19.07-7.51,32.6-22.32,40.19a60.21,60.21,0,0,1-24,6.18H0v16H589.87A75.91,75.91,0,0,0,620.63,525.36Z"/><path class="cls-2" d="M848.47,324.25H761.58a75.88,75.88,0,0,0-30.75,7.64c-14.41,7.2-31.59,22.55-31.59,54.71v108c0,19.07-7.51,32.6-22.32,40.19a60.21,60.21,0,0,1-24,6.18H0v16H652.87a75.91,75.91,0,0,0,30.76-7.64c14.42-7.21,31.61-22.56,31.61-54.73v-108c0-19.07,7.5-32.58,22.3-40.18a60.3,60.3,0,0,1,24-6.17h86.89v24l32-32-32-32Z"/><polygon class="cls-3" points="848.47 564.5 0 564.5 0 580.5 848.47 580.5 848.47 604.5 880.47 572.5 848.47 540.5 848.47 564.5"/><path class="cls-4" d="M848.47,804.75H761.61a60.29,60.29,0,0,1-24.07-6.17c-14.8-7.6-22.3-21.11-22.3-40.18v-108c0-32.17-17.19-47.52-31.61-54.73A75.91,75.91,0,0,0,652.87,588H0v16H652.84a60.2,60.2,0,0,1,24.08,6.18c14.81,7.59,22.32,21.11,22.32,40.19v108c0,32.16,17.18,47.51,31.59,54.71a75.88,75.88,0,0,0,30.75,7.64h86.89v24l32-32-32-32Z"/><path class="cls-5" d="M848.47,1045H698.61a60.29,60.29,0,0,1-24.07-6.17c-14.8-7.6-22.3-21.11-22.3-40.18V674.37c0-32.17-17.19-47.52-31.61-54.73A75.91,75.91,0,0,0,589.87,612H0v16H589.84a60.2,60.2,0,0,1,24.08,6.18c14.81,7.59,22.32,21.11,22.32,40.19V998.65c0,32.16,17.18,47.51,31.59,54.71a75.88,75.88,0,0,0,30.75,7.64H848.47v24l32-32-32-32Z"/><image width="184" height="184" transform="translate(918.4 480.5)" xlink:href="../../../../send-money-5.png"/></g></g></svg>