<svg id="Layer_1" data-name="Layer 1" xmlns="http://www.w3.org/2000/svg" viewBox="0 0 244.34 151.59"><defs><style>.cls-1,.cls-2{fill:#fff;}.cls-1{opacity:0.6;}.cls-3{fill:none;}</style></defs><title>wala-white-logo-full</title><polygon class="cls-1" points="103.96 7.46 115.76 55.89 145.12 56.07 103.96 7.46"/><polygon class="cls-2" points="49 70.68 70 74.36 6.74 89.77 49 70.68"/><polygon class="cls-1" points="117.44 62.81 114.92 52.43 89.38 54.58 72.65 44.4 71.21 60.65 49 70.68 70 74.36 122.5 83.57 117.44 62.81"/><polygon class="cls-2" points="0 62.09 83.58 55.06 49 70.68 0 62.09"/><polygon class="cls-2" points="152.04 54.38 145.12 56.07 161.49 63.08 152.04 54.38"/><polygon class="cls-1" points="145.12 56.07 14.2 0 117.44 62.81 161.49 63.08 145.12 56.07"/><polygon class="cls-2" points="145.12 56.07 122.5 83.57 14.2 0 145.12 56.07"/><path class="cls-2" d="M84.18,104.64h9.39L79.23,150.83H69.17l-9.3-34.12-9.31,34.12H40.5L26.08,104.64h9.73l9.64,37.14,9.81-37.14h10l9.39,37Z"/><path class="cls-2" d="M101.7,144.84q-6.28-6.75-6.29-17.27t6.25-17.1a20.55,20.55,0,0,1,15.55-6.58,18.4,18.4,0,0,1,9.6,2.47,17.37,17.37,0,0,1,6.41,6.5v-8.22h9.64v46.19h-9.64V142.2a18.16,18.16,0,0,1-6.45,6.83,17.68,17.68,0,0,1-9.56,2.56A20.35,20.35,0,0,1,101.7,144.84Zm27.37-5.78q4.16-4.25,4.15-11.36t-4.15-11.32a13.36,13.36,0,0,0-9.85-4.19,13.56,13.56,0,0,0-9.85,4.1q-4.14,4.11-4.15,11.24T109.37,139a13.49,13.49,0,0,0,19.7.09Z"/><path class="cls-2" d="M153.34,150.83v-62h9.56v62Z"/><path class="cls-2" d="M176.48,144.84q-6.28-6.75-6.29-17.27t6.25-17.1A20.55,20.55,0,0,1,192,103.89a18.4,18.4,0,0,1,9.6,2.47,17.37,17.37,0,0,1,6.41,6.5v-8.22h9.64v46.19H208V142.2a18.16,18.16,0,0,1-6.45,6.83,17.68,17.68,0,0,1-9.56,2.56A20.35,20.35,0,0,1,176.48,144.84Zm27.37-5.78Q208,134.82,208,127.7t-4.15-11.32a13.36,13.36,0,0,0-9.85-4.19,13.56,13.56,0,0,0-9.85,4.1Q180,120.4,180,127.53T184.15,139a13.49,13.49,0,0,0,19.7.09Z"/><rect class="cls-3" x="231.34" width="13" height="16"/></svg>